<svg xmlns="http://www.w3.org/2000/svg" viewBox="0 0 50 50"><defs><style>.cls-1{fill:#333;}</style></defs><title>lambda</title><g id="rulers"><path class="cls-1" d="M21.8623,15.9438c0-.2.1406-.3671.4248-.5h.4746q2.25.0749,2.8506,1.25.0234.0749,2.6,7.2247t2.6,7.2a4.8353,4.8353,0,0,0,.7,1.5244.2923.2923,0,0,1,.1006.2c0,.05-.0508.125-.15.2255h-1.7a2.0548,2.0548,0,0,1-.85-.7753q-2.3511-6.375-2.3506-6.4248l-1.5,1.7246q-1.5,1.7256-3,3.45l-1.5244,1.75a1.0173,1.0173,0,0,1-.75.3q-.9009,0-.9-.8a1.1472,1.1472,0,0,1,.2-.65q.1245-.1743,1.8877-1.8868t3.4873-3.3632l1.7-1.6494q0-.0249-1.25-3.5t-1.3506-3.75q-.4995-1.125-1.2744-1.125A.3751.3751,0,0,1,21.8623,15.9438Z"/></g></svg>